PathFileType	4	(X/Y/Z)	D:\TRACE\v60_Jaco2_6-2-23\JustBodyDRS_Motion1_3-v60.trc
DataRate	CameraRate	NumFrames	NumMarkers	Units	OrigDataRate	OrigDataStartFrame	OrigNumFrames
100.00	100.00	      24	9	mm	100.00	5170	      6892
Frame#	Time	front left toe			Front right toe			aft left toe			aft right toe			Arm			FL body			FR body			AL Body			AR Body			
		X1	Y1	Z1	X2	Y2	Z2	X3	Y3	Z3	X4	Y4	Z4	X5	Y5	Z5	X6	Y6	Z6	X7	Y7	Z7	X8	Y8	Z8	X9	Y9	Z9	

5170	51.690	-188.88847	9.81982	-166.56511	158.94237	50.23914	-190.91743	-158.64955	62.89759	468.81528	220.11731	29.29718	436.06711	-136.12033	1203.35498	-302.84796	-110.62482	571.82288	-301.08453	48.92683	571.37335	-314.33221	-31.33779	567.23895	641.90454	124.36074	561.19495	629.23633	
5171	51.700	-190.01936	9.48482	-166.55194	158.17090	41.96885	-190.35245	-160.78238	54.25383	469.10736	219.48192	29.44319	435.97687	-137.94807	1203.14514	-302.51620	-112.11001	571.46973	-300.55661	47.98387	571.35962	-314.37448	-33.14342	566.97540	640.82825	125.11811	561.45105	629.10010	
5172	51.710	-190.96907	9.70611	-166.60400	157.50076	34.27750	-189.68320	-162.99567	46.68305	469.47009	218.76886	29.56834	435.85596	-139.84608	1203.03674	-302.39044	-114.14285	571.51428	-300.46127	45.62131	571.23767	-314.00220	-34.00074	566.75586	641.64862	122.24512	560.98846	629.45331	
5173	51.720	-191.60156	9.49908	-166.67625	156.63049	27.47021	-188.94699	-164.34265	39.46416	469.63214	217.71582	29.67279	435.92484	-141.78477	1203.10681	-302.07150	-115.51347	571.35193	-300.04150	43.82579	571.19983	-313.66937	-35.31947	566.70996	642.17487	121.65900	561.31720	629.62695	
5174	51.730	-192.39159	9.16624	-166.62866	155.77550	21.55128	-188.33646	-165.93356	33.30617	469.53247	217.19466	29.89667	435.88559	-143.83162	1203.00989	-301.65305	-116.97923	571.15955	-299.58328	42.68820	571.28180	-313.71402	-37.07998	566.35846	641.72266	120.49603	561.23010	629.89990	
5175	51.740	-193.33562	9.20133	-166.60542	155.02180	15.46282	-187.67464	-167.69211	32.53296	467.76935	216.38278	30.05198	435.90439	-145.67549	1202.98950	-300.88159	-118.97106	571.27094	-299.45425	41.17432	571.13879	-313.33444	-38.31676	566.39484	642.76160	118.40608	561.49005	629.93011	
5176	51.750	-194.23912	9.26680	-166.59862	154.03595	12.71452	-189.33803	-169.24609	30.59939	467.59927	214.98341	30.10316	435.79565	-147.60022	1202.60815	-300.60394	-120.55492	571.06073	-299.04404	39.63233	570.78308	-312.91437	-40.15909	567.27557	642.64294	118.32533	562.43201	630.62024	
5177	51.760	-194.78502	9.28074	-166.55838	153.35721	9.32663	-188.86899	-169.69713	30.59555	468.86395	214.43768	30.79100	435.97086	-149.30247	1202.53625	-300.04498	-122.01380	570.91351	-298.62225	38.11422	570.85944	-312.27594	-40.93816	568.78546	643.54590	116.13032	563.39575	631.05096	
5178	51.770	-195.60182	9.54431	-166.28999	153.66553	9.91911	-189.62560	-169.93123	30.59472	468.83258	213.27881	31.27616	435.94260	-151.26942	1202.88928	-300.88974	-123.46698	571.46887	-297.85178	36.22442	572.07306	-312.04099	-42.51991	569.13849	643.80597	114.84887	564.46667	631.40448	
5179	51.780	-195.65306	12.13177	-167.29848	152.52155	9.55957	-188.50443	-170.60701	29.91631	468.81494	212.47984	33.23638	435.39944	-153.01384	1204.00623	-301.74588	-125.27367	573.08484	-297.49460	34.62638	573.87885	-311.48099	-43.79094	569.62341	644.50238	112.54260	564.29163	632.38324	
5180	51.790	-193.33423	16.75119	-165.61238	151.38641	10.16219	-189.26416	-171.55785	29.63827	468.81116	209.70688	36.43048	438.35657	-155.03850	1205.39160	-301.15704	-126.81779	574.75806	-297.30807	32.69848	575.38837	-311.21014	-44.93843	569.02283	644.58386	111.17945	563.59869	632.18726	
5181	51.800	-191.44589	21.84945	-161.87675	150.31860	10.18201	-189.28783	-172.57678	29.75378	468.52292	205.28349	42.37792	440.79062	-157.32608	1206.74817	-299.65891	-128.02785	575.71729	-297.40747	31.80556	576.48572	-311.58813	-46.10036	569.19287	644.18042	109.63379	563.61523	631.96332	
5182	51.810	-192.37953	32.37594	-161.19328	150.03635	9.83403	-189.78098	-173.17250	29.77389	468.37613	199.60883	51.36610	441.68600	-160.24107	1207.53857	-297.73282	-129.38715	575.74451	-297.71167	30.27884	577.07104	-311.41565	-48.03770	569.30603	644.33228	109.01807	564.54456	631.40942	
5183	51.820	-193.19962	42.06183	-160.70267	149.46663	9.63852	-189.74103	-173.48811	29.66685	468.38693	196.49426	63.98479	441.42944	-163.14415	1208.10498	-296.01797	-130.47054	575.42200	-297.86194	29.01759	577.04193	-311.62955	-49.62135	569.20801	644.03571	107.08078	565.18396	631.71069	
5184	51.830	-195.96449	55.15903	-161.79314	148.92131	9.52514	-189.65909	-174.29935	29.47097	468.30698	195.30983	76.74171	441.08072	-165.55000	1208.30896	-295.33908	-131.15388	575.25092	-297.68951	28.74162	577.13953	-311.44955	-51.26964	569.57050	644.50580	105.25873	565.36444	632.41351	
5185	51.840	-197.95264	67.49158	-161.94174	148.54951	9.51433	-189.31209	-175.41922	29.71312	468.51520	196.58260	90.10596	440.86389	-167.68527	1207.75891	-295.69373	-132.35089	574.96320	-297.30045	27.62138	576.90643	-311.03528	-53.00984	569.25745	644.74084	103.82465	565.05145	632.44916	
5186	51.850	-201.67271	80.17540	-162.05473	147.66440	9.45996	-189.43031	-176.07649	29.48960	468.44904	197.11447	103.59467	440.52759	-168.95543	1206.51526	-296.79257	-133.19878	574.62549	-297.23254	26.44930	576.61823	-310.47522	-55.09172	568.88171	645.17023	102.00597	564.87280	632.98969	
5187	51.860	-205.69623	92.41615	-161.31151	147.24376	9.40096	-189.50319	-176.71446	29.49805	468.33649	196.59389	116.24819	440.85602	-169.91481	1204.89783	-298.07474	-133.76874	573.65521	-296.62445	25.52558	576.29913	-310.36667	-56.86084	568.85278	645.15338	99.62479	564.86182	633.63757	
5188	51.870	-208.74036	103.30104	-160.21381	146.85786	9.21815	-189.35046	-177.35709	29.73887	468.39175	194.73149	128.19775	441.62189	-170.94928	1203.74951	-298.51413	-135.25282	572.89362	-296.83765	24.39522	575.28040	-309.71848	-57.95840	568.84955	645.39532	97.77901	565.27399	633.87628	
5189	51.880	-211.28389	113.50921	-159.02670	147.89590	9.37017	-188.84686	-178.03690	29.72811	468.50098	193.13147	139.62744	442.52292	-172.23090	1203.18018	-299.29150	-136.37421	571.71649	-296.68149	23.83911	574.46637	-309.73480	-59.84414	569.35242	645.64075	96.24986	566.00488	634.33594	
5190	51.890	-213.77531	122.41994	-157.88815	146.97888	9.24076	-188.78819	-178.74361	29.75031	468.54349	190.25983	149.81419	443.49597	-174.27782	1202.63391	-299.54269	-137.42412	570.84656	-296.55847	23.05922	573.53223	-309.34811	-61.49979	569.93152	645.93457	95.50404	566.82977	634.32465	
5191	51.900	-216.49904	129.66632	-156.89897	145.99498	9.10882	-188.75209	-179.31071	29.80949	468.43323	188.05804	158.64314	444.12186	-176.80891	1201.53235	-300.04993	-138.19746	569.67273	-296.39835	21.72333	572.69769	-309.22009	-63.35900	570.26459	646.25079	93.08601	566.97827	635.20953	
5192	51.910	-219.41983	135.02794	-156.22165	145.20317	9.04139	-188.65315	-179.66153	29.70428	468.40414	186.96774	164.90388	444.66531	-178.64874	1200.41833	-300.82886	-139.30602	568.74310	-296.12582	21.22439	571.67487	-308.92484	-65.04945	570.56714	646.66632	91.40406	567.56512	635.49420	
5193	51.920	-223.21683	137.85831	-155.45480	144.71866	9.08021	-188.54391	-180.39622	29.70920	468.41800	184.85725	167.38068	445.46234	-180.22949	1198.79126	-301.61948	-139.52556	567.61078	-295.99438	20.23197	570.95837	-308.63165	-66.81291	570.83459	646.82043	89.60582	567.99396	635.80969	
